<svg width="85" height="85" viewBox="0 0 85 85" fill="none" xmlns="http://www.w3.org/2000/svg">
<circle cx="42.5" cy="42.5" r="42.5" fill="#538EFA"/>
<path fill-rule="evenodd" clip-rule="evenodd" d="M66.9015 26.109C67.6048 26.8185 68 27.7807 68 28.784C68 29.7872 67.6048 30.7494 66.9015 31.4589L38.7786 59.8176C38.407 60.1925 37.9658 60.4898 37.4801 60.6927C36.9945 60.8956 36.474 61 35.9484 61C35.4227 61 34.9022 60.8956 34.4166 60.6927C33.9309 60.4898 33.4897 60.1925 33.1181 59.8176L19.1455 45.7303C18.7871 45.3813 18.5013 44.9638 18.3046 44.5022C18.108 44.0406 18.0045 43.5441 18.0001 43.0418C17.9958 42.5394 18.0907 42.0412 18.2794 41.5762C18.4681 41.1112 18.7467 40.6888 19.0989 40.3335C19.4512 39.9783 19.8702 39.6974 20.3313 39.5071C20.7924 39.3169 21.2865 39.2212 21.7846 39.2255C22.2828 39.2299 22.7752 39.3343 23.2329 39.5326C23.6907 39.7308 24.1047 40.0191 24.4508 40.3804L35.9471 51.9731L61.5936 26.109C61.942 25.7574 62.3557 25.4785 62.8111 25.2882C63.2665 25.0979 63.7546 25 64.2475 25C64.7404 25 65.2285 25.0979 65.6839 25.2882C66.1393 25.4785 66.553 25.7574 66.9015 26.109Z" fill="#F8F8F8"/>
</svg>
