<svg width="62" height="62" viewBox="0 0 62 62" fill="none" xmlns="http://www.w3.org/2000/svg">
<mask id="mask0_5_370" style="mask-type:luminance" maskUnits="userSpaceOnUse" x="0" y="0" width="62" height="62">
<path d="M0 0H62V62H0V0Z" fill="white"/>
</mask>
<g mask="url(#mask0_5_370)">
<path fill-rule="evenodd" clip-rule="evenodd" d="M23.2502 52.3127L8.7693 41.0519C7.38247 39.9724 6.40872 38.4492 6.01118 36.7373C5.61364 35.0254 5.81646 33.2289 6.58565 31.6488C7.35484 30.0686 8.64368 28.8008 10.2363 28.0577C11.8289 27.3145 13.6284 27.1413 15.3335 27.5669L19.3752 28.5783V7.52541C19.3744 5.67112 20.0583 3.88181 21.2956 2.50073C22.5329 1.11964 24.2366 0.244025 26.0799 0.0418351C27.9231 -0.160355 29.7761 0.325121 31.2834 1.40514C32.7907 2.48515 33.8462 4.08366 34.2474 5.89404L36.8127 17.4377L47.4457 19.2085C49.0442 19.4746 50.5694 20.0719 51.9235 20.9621C53.2776 21.8524 54.4306 23.0159 55.3085 24.378C56.1864 25.7401 56.7698 27.2707 57.0213 28.8716C57.2728 30.4725 57.1869 32.1082 56.7689 33.6739L52.3127 50.3752L23.2502 52.3127ZM51.1502 32.1743L47.7712 44.8533L25.0714 46.3645L12.3382 36.4639C12.0048 36.2023 11.7713 35.8343 11.6765 35.4213C11.5817 35.0083 11.6314 34.5752 11.8173 34.1944C12.0031 33.8136 12.3139 33.5081 12.6979 33.3287C13.0818 33.1494 13.5156 33.1071 13.9269 33.2089L17.9647 34.2164L25.1877 36.0222V7.52541C25.1852 7.10185 25.3398 6.6924 25.6216 6.37615C25.9034 6.0599 26.2924 5.85928 26.7134 5.81304C27.1344 5.76679 27.5577 5.8782 27.9014 6.12574C28.2451 6.37329 28.4849 6.73942 28.5744 7.15341L31.1397 18.7009L31.9922 22.5255L35.8555 23.1727L46.4885 24.9435C47.2876 25.0766 48.05 25.3752 48.7269 25.8202C49.4038 26.2652 49.9801 26.8468 50.4191 27.5276C50.858 28.2084 51.1498 28.9735 51.2757 29.7737C51.4016 30.5739 51.3588 31.3916 51.1502 32.1743ZM51.5493 60.0549C52.3079 59.9872 53.0096 59.6245 53.5035 59.0447C53.9973 58.4649 54.2439 57.7145 54.19 56.9548C54.1362 56.195 53.7863 55.4868 53.2156 54.9825C52.645 54.4781 51.8991 54.2179 51.1385 54.2579L24.0135 56.1954C23.628 56.2157 23.2503 56.3126 22.9026 56.4804C22.5549 56.6483 22.2441 56.8838 21.9884 57.1731C21.7327 57.4624 21.5372 57.7998 21.4134 58.1655C21.2895 58.5312 21.2398 58.9179 21.2671 59.3031C21.2944 59.6882 21.3981 60.0641 21.5723 60.4087C21.7465 60.7533 21.9876 61.0597 22.2815 61.3101C22.5754 61.5604 22.9163 61.7497 23.2842 61.8669C23.6521 61.984 24.0397 62.0267 24.4243 61.9924L51.5493 60.0549Z" fill="#F8F8F8"/>
</g>
</svg>
