<svg width="60" height="60" viewBox="0 0 60 60" fill="none" xmlns="http://www.w3.org/2000/svg">
<g clip-path="url(#clip0_9_502)">
<path fill-rule="evenodd" clip-rule="evenodd" d="M30 5C24.4225 5 20 9.3925 20 14.57V30.43C20 35.605 24.4225 40 30 40C35.5775 40 40 35.605 40 30.43V14.57C40 9.395 35.5775 5 30 5Z" fill="#FF5C67"/>
<path d="M32.5 52.3625V57.5C32.5 58.163 32.2366 58.7989 31.7678 59.2678C31.2989 59.7366 30.663 60 30 60C29.337 60 28.7011 59.7366 28.2322 59.2678C27.7634 58.7989 27.5 58.163 27.5 57.5V52.3625C21.9995 51.7475 16.9186 49.1267 13.2289 45.0011C9.53918 40.8756 7.49955 35.5348 7.5 30C7.5 29.337 7.76339 28.7011 8.23223 28.2322C8.70107 27.7634 9.33696 27.5 10 27.5C10.663 27.5 11.2989 27.7634 11.7678 28.2322C12.2366 28.7011 12.5 29.337 12.5 30C12.5 32.2981 12.9527 34.5738 13.8321 36.697C14.7116 38.8202 16.0006 40.7493 17.6256 42.3744C19.2507 43.9994 21.1798 45.2884 23.303 46.1679C25.4262 47.0474 27.7019 47.5 30 47.5C32.2981 47.5 34.5738 47.0474 36.697 46.1679C38.8202 45.2884 40.7493 43.9994 42.3744 42.3744C43.9994 40.7493 45.2884 38.8202 46.1679 36.697C47.0474 34.5738 47.5 32.2981 47.5 30C47.5 29.337 47.7634 28.7011 48.2322 28.2322C48.7011 27.7634 49.337 27.5 50 27.5C50.663 27.5 51.2989 27.7634 51.7678 28.2322C52.2366 28.7011 52.5 29.337 52.5 30C52.5004 35.5348 50.4608 40.8756 46.7711 45.0011C43.0814 49.1267 38.0005 51.7475 32.5 52.3625Z" fill="#FF5C67"/>
</g>
<defs>
<clipPath id="clip0_9_502">
<rect width="60" height="60" fill="white"/>
</clipPath>
</defs>
</svg>
