<svg width="132" height="132" viewBox="0 0 132 132" fill="none" xmlns="http://www.w3.org/2000/svg">
<path d="M22 0H58.6667C64.5014 0 70.0972 2.31785 74.223 6.44365C78.3488 10.5695 80.6667 16.1652 80.6667 22V84.964L67.518 71.8153C66.1349 70.4795 64.2825 69.7404 62.3597 69.7571C60.437 69.7738 58.5977 70.545 57.238 71.9047C55.8783 73.2643 55.1071 75.1036 55.0904 77.0264C55.0737 78.9492 55.8128 80.8016 57.1487 82.1847L82.8153 107.851C83.8409 108.877 85.1475 109.575 86.5698 109.858C87.9921 110.14 89.4663 109.995 90.8061 109.44C92.1459 108.885 93.2911 107.946 94.0969 106.74C94.9028 105.534 95.333 104.117 95.3333 102.667V22C95.344 14.0647 92.7697 6.34186 88 0H110C115.835 0 121.431 2.31785 125.556 6.44365C129.682 10.5695 132 16.1652 132 22V110C132 115.835 129.682 121.431 125.556 125.556C121.431 129.682 115.835 132 110 132H73.3333C67.4986 132 61.9028 129.682 57.777 125.556C53.6512 121.431 51.3333 115.835 51.3333 110V47.036L64.482 60.1847C65.8651 61.5205 67.7175 62.2597 69.6403 62.2429C71.5631 62.2262 73.4023 61.455 74.762 60.0953C76.1217 58.7357 76.8929 56.8964 76.9096 54.9736C76.9263 53.0508 76.1872 51.1984 74.8513 49.8153L49.1847 24.1487C48.1591 23.1234 46.8526 22.4252 45.4302 22.1424C44.0079 21.8596 42.5337 22.0048 41.1939 22.5597C39.8541 23.1146 38.7089 24.0543 37.9031 25.26C37.0972 26.4656 36.667 27.8832 36.6667 29.3333V110C36.6667 118.257 39.3947 125.869 44 132H22C16.1652 132 10.5695 129.682 6.44365 125.556C2.31785 121.431 0 115.835 0 110V22C0 16.1652 2.31785 10.5695 6.44365 6.44365C10.5695 2.31785 16.1652 0 22 0Z" fill="#5F93F4"/>
</svg>
